PathFileType	3	(X/Y/Z)	F:\ViconData\AntennenMessung\Messung1\Session1\ID03.trc
DataRate	CameraRate	NumFrames	NumMarkers	Units	OrigDataRate	OrigDataStartFrame	OrigNumFrames
120.0	120.0	4	70	mm	120.0	1	1160	
Frame#	Time	Ashort			Along			Atop			A4			Bshort			Blong			Btop			B4			Cshort			Clong			Ctop			C4			Dshort			Dlong			Dtop			D4			Eshort			Elong			Etop			E4			Fshort			Flong			Ftop			F4			Gshort			Glong			Gtop			G4			Hshort			Hlong			Htop			H4			I1			I2			I3			I4			I5			WandAshort			WandAlong			WandAtop			WandA4			WandA15			WandBshort			WandB4			WandB5			WandBtop			WandBlong			WandCshort			WandClong			WandCtop			WandC4			WandC5			Acenter			Aantenna			Bcenter			Bantenna			Ccenter			Cantenna			Dcenter			Dantenna			Ecenter			Eantenna			Fcenter			Fantenna			Gcenter			Gantenna			Hcenter			Hantenna			Icenter			Iantenna			
		X1	Y1	Z1	X2	Y2	Z2	X3	Y3	Z3	X4	Y4	Z4	X5	Y5	Z5	X6	Y6	Z6	X7	Y7	Z7	X8	Y8	Z8	X9	Y9	Z9	X10	Y10	Z10	X11	Y11	Z11	X12	Y12	Z12	X13	Y13	Z13	X14	Y14	Z14	X15	Y15	Z15	X16	Y16	Z16	X17	Y17	Z17	X18	Y18	Z18	X19	Y19	Z19	X20	Y20	Z20	X21	Y21	Z21	X22	Y22	Z22	X23	Y23	Z23	X24	Y24	Z24	X25	Y25	Z25	X26	Y26	Z26	X27	Y27	Z27	X28	Y28	Z28	X29	Y29	Z29	X30	Y30	Z30	X31	Y31	Z31	X32	Y32	Z32	X33	Y33	Z33	X34	Y34	Z34	X35	Y35	Z35	X36	Y36	Z36	X37	Y37	Z37	X38	Y38	Z38	X39	Y39	Z39	X40	Y40	Z40	X41	Y41	Z41	X42	Y42	Z42	X43	Y43	Z43	X44	Y44	Z44	X45	Y45	Z45	X46	Y46	Z46	X47	Y47	Z47	X48	Y48	Z48	X49	Y49	Z49	X50	Y50	Z50	X51	Y51	Z51	X52	Y52	Z52	X53	Y53	Z53	X54	Y54	Z54	X55	Y55	Z55	X56	Y56	Z56	X57	Y57	Z57	X58	Y58	Z58	X59	Y59	Z59	X60	Y60	Z60	X61	Y61	Z61	X62	Y62	Z62	X63	Y63	Z63	X64	Y64	Z64	X65	Y65	Z65	X66	Y66	Z66	X67	Y67	Z67	X68	Y68	Z68	X69	Y69	Z69	X70	Y70	Z70	
1	0	-1038.3197	214.65002	-1644.0836	-1109.3052	203.78296	-1599.5999	-1063.6366	172.57742	-1625.5986	-1054.1774	262.06064	-1634.9843	-1353.1311	234.71495	1004.0225	-1281.4197	227.11757	1052.4911	-1323.0614	194.03819	1020.8351	-1284.6808	287.81757	1052.7839	813.9118	187.64709	1209.5946	892.8775	179.42334	1178.5725	844.47345	145.18394	1198.2896	860.39899	292.46289	1167.1846	1115.9001	209.87476	-1401.7253	1056.2445	194.17039	-1460.2736	1094.9608	162.03027	-1423.8242	1069.908	238.57001	-1425.9564	-1204.5554	1685.9822	-1563.1633	-1129.1073	1688.2072	-1606.0291	-1173.1119	1724.4307	-1581.9999	-1133.554	1581.0358	-1603.5084	-1239.8036	1699.3798	1119.3396	-1309.4749	1698.8629	1071.8069	-1270.3557	1736.1702	1096.6752	-1244.6202	1594.3092	1106.5026	988.8114	1664.1168	1162.236	955.38556	1701.0634	1182.3508	922.50366	1662.0093	1214.8125	939.74774	1659.3297	1159.9078	999.25189	1668.4873	-1579.4724	1059.0089	1670.2085	-1518.6805	1025.0813	1707.9518	-1551.1442	1059.2803	1672.2156	-1585.6185	-552.56494	1664.1567	-294.25769	-557.87915	1665.2708	-209.61156	-555.41998	1701.3904	-256.87378	-586.88379	1662.4857	-259.39545	-507.41183	1666.5531	-254.27228																																														-1068.925	209.96468	-1624.9044	-1074.3864	248.57375	-1624.1874	-1321.9722	231.41385	1025.0823	-1320.8434	270.14825	1029.4836	847.74786	184.12328	1196.3019	851.01166	222.93594	1194.3209	1088.7303	202.72231	-1428.3906	1082.8638	241.03804	-1432.6904	-1171.8586	1686.9464	-1581.7397	-1170.5555	1647.9691	-1581.4692	-1271.0156	1699.1482	1098.0453	-1271.7104	1660.181	1099.4874	951.80609	1705.0198	1184.5049	970.78137	1732.8721	1164.8787	1026.6543	1669.2765	-1551.5953	1028.2393	1630.3114	-1552.0502	-554.94415	1664.6554	-256.36044	-554.43909	1625.6626	-255.81557
2	0.0083333333	-1038.3308	214.63548	-1644.1088	-1109.3159	203.75868	-1599.6008	-1063.5699	173.20432	-1625.8595	-1054.178	262.0303	-1634.9521	-1353.0553	235.00778	1004.0037	-1281.3746	227.19902	1052.3706	-1323.0791	194.08377	1020.8075	-1284.6941	287.82718	1052.7588	813.8797	187.79027	1209.5297	892.41492	178.41612	1179.2335	844.13379	145.57364	1198.2395	860.57343	292.60745	1167.2749	1115.8971	209.86479	-1401.7334	1056.254	194.13579	-1460.2604	1095.0077	162.0569	-1423.7992	1069.8706	238.5056	-1425.995	-1204.4535	1685.877	-1563.3849	-1129.0936	1688.2141	-1606.064	-1173.1084	1724.4275	-1581.9967	-1133.5488	1581.0251	-1603.4935	-1239.8424	1699.4281	1119.3618	-1309.4606	1698.8354	1071.7957	-1270.3826	1736.2137	1096.6956	-1244.623	1594.4139	1106.6628	988.80927	1664.1404	1162.2533	955.96362	1702.4026	1181.0946	922.46033	1662.0408	1214.8395	939.72888	1659.3392	1159.8997	999.26086	1668.5012	-1579.4766	1059.015	1670.2156	-1518.6936	1025.0826	1707.9502	-1551.1449	1059.2726	1672.1982	-1585.6219	-552.55249	1664.1591	-294.26862	-557.86328	1665.2596	-209.62236	-555.41693	1701.3922	-256.88602	-587.10791	1662.7327	-259.40643	-507.41751	1666.5565	-254.27914																																														-1068.7059	209.98119	-1625.0634	-1074.0989	248.59747	-1624.2274	-1321.8569	231.60909	1025.0547	-1320.5956	270.3414	1029.4386	847.96942	183.72122	1196.3789	851.86658	222.47995	1194.4888	1088.7626	202.70889	-1428.3601	1082.8768	241.02182	-1432.6587	-1171.858	1686.8877	-1581.8447	-1170.5599	1647.9097	-1581.6871	-1271.0059	1699.1627	1098.0695	-1271.6616	1660.1949	1099.5146	953.78833	1704.9364	1182.3424	973.4093	1731.8022	1161.9894	1026.6602	1669.2874	-1551.6053	1028.2502	1630.3225	-1552.0696	-554.92981	1664.6516	-256.37772	-554.41272	1625.6587	-255.83827
3	0.016666667	-1038.3617	214.62959	-1644.0936	-1109.3177	203.735	-1599.6074	-1063.6721	172.08083	-1625.1609	-1054.1884	262.02194	-1634.955	-1353.1155	234.75172	1003.9892	-1281.3967	227.15349	1052.4893	-1323.1135	194.07928	1020.8126	-1284.6891	287.84467	1052.7532	813.89447	187.70709	1209.447	892.19873	178.51237	1179.1464	844.47845	145.18846	1198.2764	860.49518	292.33051	1167.1891	1115.8978	209.87593	-1401.7354	1056.2373	194.17531	-1460.2806	1095.0179	162.1299	-1423.809	1069.8751	238.52345	-1426.0016	-1204.5464	1685.9795	-1563.1545	-1129.1003	1688.1807	-1606.0339	-1173.1616	1724.3127	-1581.8776	-1133.5476	1581.0328	-1603.5098	-1239.828	1699.42	1119.3458	-1309.4465	1698.8315	1071.7927	-1270.3893	1736.208	1096.6967	-1244.7443	1593.6975	1106.3027	988.89703	1664.192	1162.2245	955.87854	1702.3773	1181.1333	922.42035	1662.0809	1214.8331	939.74377	1659.3175	1159.9401	999.24908	1668.5002	-1579.4998	1059.0089	1670.2228	-1518.6965	1025.0784	1707.9584	-1551.1478	1059.2606	1672.1881	-1585.6234	-552.55206	1664.1504	-294.26376	-557.82623	1665.2422	-209.62909	-555.41278	1701.3901	-256.88782	-587.11804	1662.7371	-259.41769	-507.42264	1666.5433	-254.2774																																														-1069.2185	209.89183	-1624.7478	-1074.8784	248.47662	-1624.326	-1322.0044	231.45567	1025.0281	-1320.8549	270.19312	1029.397	848.1861	183.68047	1196.1775	851.9198	222.44373	1194.0638	1088.7816	202.73987	-1428.3446	1082.8978	241.05522	-1432.624	-1171.9567	1686.9302	-1581.6766	-1170.7003	1647.951	-1581.467	-1271.0021	1699.1565	1098.0522	-1271.6465	1660.1879	1099.4781	953.56927	1705.0479	1182.4557	973.11041	1732.0028	1162.1438	1026.6616	1669.2903	-1551.6084	1028.2571	1630.3258	-1552.0728	-554.9126	1664.639	-256.38257	-554.38208	1625.6462	-255.8465
4	0.025	-1038.2837	214.40523	-1644.1271	-1109.3129	203.74689	-1599.6068	-1063.5723	172.63408	-1625.5901	-1054.1812	262.05252	-1634.9631	-1353.068	234.79829	1003.9388	-1281.3986	227.15001	1052.421	-1323.0477	194.07071	1020.7867	-1284.7064	287.8696	1052.7328	813.88696	187.70819	1209.4806	892.19794	178.53885	1179.1665	844.62811	145.07642	1198.3564	860.47229	292.57889	1167.3883	1115.886	209.85654	-1401.7267	1056.2477	194.15018	-1460.2506	1094.9547	162.08646	-1423.8301	1069.9241	238.59521	-1425.9819	-1204.4379	1685.8771	-1563.3931	-1129.1687	1688.3733	-1606.7908	-1173.1005	1724.4285	-1581.9908	-1133.5259	1580.9933	-1603.4504	-1239.8168	1699.4132	1119.3539	-1309.4537	1698.8442	1071.7977	-1270.364	1736.1893	1096.6858	-1244.624	1594.3177	1106.6399	988.888	1664.1858	1162.2107	955.82544	1702.1218	1181.0125	922.48944	1662.0859	1214.8302	939.75458	1659.2985	1159.9254	999.26025	1668.5121	-1579.4949	1059.019	1670.2184	-1518.6844	1025.0796	1707.9528	-1551.1475	1059.2678	1672.1899	-1585.6281	-552.56366	1664.1614	-294.26538	-557.86517	1665.2817	-209.60033	-555.40845	1701.386	-256.88983	-587.09747	1662.7135	-259.41052	-507.40433	1666.5485	-254.27965																																														-1068.7882	209.82784	-1625.0073	-1074.2037	248.44527	-1624.4022	-1321.915	231.47375	1025.0127	-1320.7419	270.20963	1029.3893	848.29785	183.67905	1196.1602	851.98291	222.44186	1193.955	1088.7239	202.70316	-1428.3811	1082.8463	241.01793	-1432.6743	-1171.9386	1686.9548	-1582.131	-1170.7299	1647.9738	-1582.277	-1270.9991	1699.1583	1098.0588	-1271.6677	1660.1908	1099.5039	953.31409	1705.0033	1182.4406	972.71094	1732.0098	1162.059	1026.6586	1669.2943	-1551.6143	1028.25	1630.3296	-1552.0851	-554.93628	1664.6627	-256.37424	-554.435	1625.6698	-255.8268
